<svg width="37" height="36" viewBox="0 0 37 36" fill="none" xmlns="http://www.w3.org/2000/svg">
<path d="M14.1884 25.2265L26.1269 17.6L14.1884 9.97348V25.2265ZM18.5004 35.2C16.0854 35.2 13.8072 34.738 11.6659 33.814C9.52454 32.89 7.65688 31.6312 6.06291 30.0375C4.46923 28.4435 3.21039 26.5759 2.28639 24.4345C1.36239 22.2932 0.900391 20.015 0.900391 17.6C0.900391 15.1653 1.36239 12.8773 2.28639 10.736C3.21039 8.59467 4.46923 6.732 6.06291 5.148C7.65688 3.564 9.52454 2.31 11.6659 1.386C13.8072 0.462 16.0854 0 18.5004 0C20.9351 0 23.2231 0.462 25.3644 1.386C27.5057 2.31 29.3684 3.564 30.9524 5.148C32.5364 6.732 33.7904 8.59467 34.7144 10.736C35.6384 12.8773 36.1004 15.1653 36.1004 17.6C36.1004 20.015 35.6384 22.2932 34.7144 24.4345C33.7904 26.5759 32.5364 28.4435 30.9524 30.0375C29.3684 31.6312 27.5057 32.89 25.3644 33.814C23.2231 34.738 20.9351 35.2 18.5004 35.2ZM18.5004 32.2665C22.5874 32.2665 26.0536 30.839 28.8989 27.984C31.7442 25.129 33.1669 21.6677 33.1669 17.6C33.1669 13.513 31.7442 10.0468 28.8989 7.20148C26.0536 4.35615 22.5874 2.93348 18.5004 2.93348C14.4327 2.93348 10.9714 4.35615 8.11639 7.20148C5.26138 10.0468 3.83387 13.513 3.83387 17.6C3.83387 21.6677 5.26138 25.129 8.11639 27.984C10.9714 30.839 14.4327 32.2665 18.5004 32.2665Z" fill="#1C1B1F"/>
</svg>
